<svg class="jss13" width="134" viewBox="0 0 171 31" fill="none" xmlns="http://www.w3.org/2000/svg">
  <path d="M23.3892 0.0238953H13.6979L16.6924 9.40764H26.3837L18.5435 15.0006L21.5381 24.4372C26.5856 20.7406 28.2338 15.1466 26.3796 9.40349L23.3892 0.0238953ZM1.01213 9.40764H10.7034L13.6979 0.0238953H4.00666L1.01213 9.40764C-0.842061 15.1508 0.806111 20.7448 5.85364 24.4413L8.84816 15.0047L1.01213 9.40764ZM5.85364 24.4413L13.6938 30.0249L21.5339 24.4413L13.6938 18.7644L5.85364 24.4413ZM78.9913 9.1777C76.6972 9.1777 75.2396 10.2238 74.5495 11.9234H74.3744V4.19686H70.9317V24.3937H74.4495V15.6282C74.4495 13.4594 75.7887 12.2103 77.6748 12.2103C79.5218 12.2103 80.6106 13.3931 80.6106 15.4149V24.3937H84.1284V14.8235C84.1326 11.1984 82.0919 9.17563 78.9923 9.17563L78.9913 9.1777ZM93.6415 4.16683C88.8803 4.16683 86.0187 7.91204 86.0063 14.4206C86.0063 20.9457 88.8607 24.7437 93.6415 24.7437C98.4222 24.7437 101.277 20.9592 101.277 14.4206C101.277 7.91722 98.4026 4.16683 93.6415 4.16683ZM89.6354 14.4206C89.6447 9.67278 91.1805 7.17045 93.6415 7.17045C95.3205 7.17045 96.5701 8.33047 97.1995 10.5677L89.6992 16.0467C89.656 15.5364 89.6347 14.9944 89.6354 14.4206ZM93.6415 21.6987C91.9057 21.6987 90.6264 20.4641 90.0227 18.0674L97.5631 12.5583C97.6265 13.1777 97.6578 13.8 97.6568 14.4227C97.6568 19.2036 96.1189 21.6945 93.6415 21.6945V21.6987ZM55.1041 18.0891C55.1041 20.375 53.4817 21.5071 51.9273 21.5071C50.2369 21.5071 49.1089 20.3046 49.1089 18.3999V9.38899H45.5911V18.9447C45.5911 22.55 47.6317 24.5925 50.5665 24.5925C52.8018 24.5925 54.3779 23.4097 55.0557 21.7287H55.2123V24.3968H58.623V9.38899H55.1041V18.0891ZM37.6397 9.16527C34.502 9.16527 32.0925 10.5718 31.3148 13.3082L34.5988 13.7774C34.948 12.751 35.9379 11.8727 37.6592 11.8727C39.2909 11.8727 40.1851 12.7127 40.1851 14.1875V14.2455C40.1851 15.2616 39.1261 15.3113 36.4932 15.592C33.5975 15.9027 30.8276 16.7738 30.8276 20.1492C30.8276 23.099 32.9753 24.6619 35.8215 24.6619C38.163 24.6619 39.5619 23.5578 40.2036 22.2984H40.32V24.3636H43.7008V14.317C43.7019 10.3533 40.4859 9.16113 37.6397 9.16113V9.16527ZM40.1943 18.983C40.1943 20.6536 38.8552 22.0695 36.7363 22.0695C35.2694 22.0695 34.2197 21.3952 34.2197 20.0964C34.2197 18.7386 35.3951 18.172 36.9691 17.9473C37.8962 17.8199 39.738 17.5858 40.1943 17.215V18.983ZM66.1314 5.64275H62.6146V9.40038H60.4792V12.2103H62.6146V20.519C62.5951 23.3424 64.6357 24.7303 67.279 24.6526C67.8841 24.6389 68.4851 24.5495 69.0683 24.3864V21.5899C68.8015 21.6251 68.1783 21.7059 67.7291 21.7163C66.8453 21.736 66.1345 21.4056 66.1345 19.9773V12.2062H69.0775V9.39624H66.1314V5.64275Z" fill="white"></path>
  <path d="M120.099 24.5742C122.774 24.5742 124.02 22.8771 124.624 21.5347H124.826V24.2673H126.494V4.63098H124.778V12.3494H124.624C124.039 11.0262 122.822 9.33872 120.128 9.33872C116.494 9.33872 114.039 12.4069 114.039 16.9421C114.039 21.5156 116.484 24.5742 120.099 24.5742ZM120.3 23.0113C117.366 23.0113 115.755 20.3458 115.755 16.9133C115.755 13.5191 117.347 10.892 120.3 10.892C123.177 10.892 124.807 13.3849 124.807 16.9133C124.807 20.4705 123.157 23.0113 120.3 23.0113Z" fill="white"></path>
  <path d="M136.579 24.5742C140.395 24.5742 143.061 21.458 143.061 16.9708C143.061 12.4548 140.395 9.33872 136.579 9.33872C132.763 9.33872 130.098 12.4548 130.098 16.9708C130.098 21.458 132.763 24.5742 136.579 24.5742ZM136.579 23.0113C133.521 23.0113 131.814 20.2691 131.814 16.9708C131.814 13.6725 133.521 10.892 136.579 10.892C139.638 10.892 141.345 13.6725 141.345 16.9708C141.345 20.2691 139.638 23.0113 136.579 23.0113Z" fill="white"></path>
  <path d="M152.06 24.5742C155.128 24.5742 157.286 22.6374 157.679 19.9719H155.953C155.56 21.8512 154.016 23.0113 152.06 23.0113C149.174 23.0113 147.266 20.4992 147.266 16.9133C147.266 13.3465 149.232 10.892 152.06 10.892C154.16 10.892 155.579 12.2439 155.943 13.9122H157.669C157.266 11.1796 154.985 9.33872 152.031 9.33872C148.177 9.33872 145.55 12.5411 145.55 16.9708C145.55 21.3622 148.1 24.5742 152.06 24.5742Z" fill="white"></path>
  <path d="M170.732 12.7713C170.012 10.6427 168.44 9.33872 165.746 9.33872C162.773 9.33872 160.616 11.0358 160.616 13.4616C160.616 15.4367 161.815 16.7791 164.375 17.3927L166.781 17.968C168.402 18.3515 169.178 19.1857 169.178 20.365C169.178 21.8991 167.711 23.0401 165.448 23.0401C163.435 23.0401 162.179 22.1292 161.767 20.3842L160.127 20.7869C160.645 23.2414 162.591 24.5742 165.477 24.5742C168.718 24.5742 170.942 22.7908 170.942 20.2883C170.942 18.3227 169.706 17.0092 167.241 16.4051L165.017 15.8586C163.186 15.3984 162.332 14.6601 162.332 13.3849C162.332 11.8891 163.761 10.844 165.746 10.844C167.73 10.844 168.708 11.8891 169.169 13.2123L170.732 12.7713Z" fill="white"></path>
</svg>