<?xml version="1.0" standalone="no"?>
<!DOCTYPE svg PUBLIC "-//W3C//DTD SVG 20010904//EN" "http://www.w3.org/TR/2001/REC-SVG-20010904/DTD/svg10.dtd">
<svg version="1.0" xmlns="http://www.w3.org/2000/svg" viewBox="0 0 500 235" preserveAspectRatio="xMidYMid meet">
  <g transform="translate(0,235) scale(0.1,-0.1)" fill="#000000" stroke="none">
    <path d="M2430 1175 c0 -469 2 -535 15 -535 13 0 15 66 15 535 0 469 -2 535 -15 535 -13 0 -15 -66 -15 -535z"/>
    <path d="M562 1268 l3 -323 55 0 55 0 5 85 c4 66 8 85 21 88 9 2 52 -35 103 -88 l87 -90 65 0 c98 0 95 12 -30 139 -58 59 -106 113 -106 120 0 6 39 54 86 106 54 60 84 101 80 110 -4 11 -22 15 -64 15 l-60 0 -77 -80 c-103 -105 -105 -103 -105 91 l0 149 -60 0 -60 0 2 -322z"/>
    <path d="M1060 1355 c0 -231 0 -237 25 -285 40 -78 123 -130 209 -130 25 0 47 4 50 8 3 5 2 30 -2 57 -7 48 -9 50 -45 56 -91 15 -120 57 -115 169 l3 75 70 5 70 5 0 55 0 55 -72 3 -72 3 -3 77 -3 77 -57 3 -58 3 0 -236z"/>
    <path d="M2986 1366 c-42 -132 -46 -208 -17 -271 28 -58 55 -85 157 -158 l90 -65 85 60 c114 82 138 105 165 163 34 71 31 128 -14 265 l-38 115 -196 3 -196 2 -36 -114z m264 11 l26 -82 98 -5 98 -5 -76 -53 c-42 -29 -76 -56 -76 -59 0 -3 12 -43 26 -90 14 -46 24 -86 22 -88 -1 -2 -36 21 -77 50 l-74 54 -61 -45 c-106 -78 -103 -84 -43 101 6 17 -6 30 -70 75 l-78 55 96 3 95 3 29 89 c16 49 31 87 34 85 2 -3 16 -42 31 -88z"/>
    <path d="M190 1421 c-136 -42 -208 -177 -168 -315 18 -59 99 -138 161 -155 65 -19 140 -8 196 26 135 84 158 267 46 378 -61 62 -159 89 -235 66z m127 -137 c78 -50 71 -169 -13 -209 -47 -22 -98 -13 -135 24 -36 36 -45 73 -30 121 23 77 110 108 178 64z"/>
    <path d="M1541 1419 c-88 -27 -154 -99 -173 -190 -40 -194 165 -350 350 -264 l52 24 37 -25 c30 -20 47 -24 88 -22 l50 3 3 57 3 57 -36 7 c-19 3 -40 15 -45 25 -6 10 -10 85 -10 166 0 103 -4 153 -12 161 -17 17 -88 15 -109 -4 -13 -12 -22 -13 -37 -5 -30 16 -122 22 -161 10z m113 -123 c70 -29 98 -111 59 -177 -18 -31 -67 -59 -103 -59 -57 0 -120 65 -120 126 0 43 39 97 80 111 45 15 45 15 84 -1z"/>
    <path d="M4380 1190 l0 -200 35 0 35 0 0 98 c0 119 12 145 68 140 50 -4 62 -31 62 -145 l0 -93 36 0 36 0 -4 121 -4 122 -32 28 c-43 38 -102 40 -137 4 l-25 -24 0 74 0 75 -35 0 -35 0 0 -200z"/>
    <path d="M4755 1368 c-44 -35 -65 -92 -65 -184 0 -65 4 -89 23 -125 52 -100 190 -106 249 -11 17 28 23 55 26 122 7 149 -43 220 -154 220 -38 0 -59 -6 -79 -22z m134 -64 c12 -15 21 -30 21 -34 0 -4 -33 -30 -72 -59 l-73 -53 -3 33 c-2 18 -1 47 2 64 14 72 85 100 125 49z m31 -129 c0 -81 -35 -135 -89 -135 -20 0 -61 43 -61 65 0 12 126 112 143 114 4 1 7 -19 7 -44z"/>
    <path d="M4210 1325 c0 -28 -4 -35 -20 -35 -16 0 -20 -7 -20 -30 0 -23 4 -30 20 -30 19 0 20 -7 20 -99 0 -122 12 -143 81 -145 41 -1 44 1 47 26 3 23 -1 27 -25 30 l-28 3 -3 93 -3 92 31 0 c27 0 30 3 30 30 0 27 -3 30 -30 30 -28 0 -30 3 -30 35 0 33 -2 35 -35 35 -33 0 -35 -2 -35 -35z"/>
    <path d="M3619 1267 c-43 -29 -48 -52 -13 -61 20 -5 32 -2 48 13 40 37 103 19 94 -26 -2 -13 -17 -20 -53 -26 -73 -12 -117 -37 -126 -70 -21 -81 64 -142 146 -105 14 6 25 15 25 20 0 4 5 8 10 8 6 0 10 -7 10 -15 0 -10 10 -15 33 -15 l32 0 -3 125 -3 124 -30 26 c-41 34 -121 35 -170 2z m111 -219 c-28 -22 -58 -23 -82 -1 -36 32 -16 59 53 71 43 8 44 7 47 -22 3 -22 -3 -36 -18 -48z"/>
    <path d="M3870 1286 c-3 -2 -3 -61 0 -130 5 -114 7 -128 28 -148 32 -33 101 -32 136 1 26 24 26 24 26 3 0 -18 6 -22 35 -22 l35 0 0 150 0 150 -35 0 -35 0 0 -99 c0 -80 -3 -103 -17 -119 -27 -30 -57 -35 -83 -14 -21 17 -23 27 -24 123 l-1 104 -30 3 c-17 2 -33 1 -35 -2z"/>
  </g>
</svg>
